# xmcd CD database file
#
# Track frame offsets:
#	150
#	12185
#	24711
#	38085
#	49845
#	68921
#	82660
#	108187
#	124835
#	144438
#	178740
#	191283
#	205497
#	218466
#	238577
#	265260
#
# Disc length: 3938 seconds
#
# Revision: 0
# Processed by: cddbd v1.5.2PL0 Copyright (c) Steve Scherf et al.
# Submitted via: CDex 1.70beta2
#
DISCID=d50f6010
DTITLE=Best Of Blues - Best Of Blues CD 1-2
DYEAR=2008
DGENRE=Blues
TTITLE0=John Mayall - Lost And Gone
TTITLE1=Jimmy Reed - Bright Lights, Big City
TTITLE2=Buddy Guy - This Is The End
TTITLE3=Robert Johnson - Me And The Devil Blues
TTITLE4=Mississippi Fred McDowell - Someday
TTITLE5=Lightnin' Hopkins - Mojo Hand
TTITLE6=Junior Wells - I Got My Mojo Working
TTITLE7=Mike Bloomfield - Cherry Red
TTITLE8=Albert King - Cadillac Assembly Line
TTITLE9=B.B. King - Outside Help (Short Version)
TTITLE10=Earl Hooker - Blue Guitar
TTITLE11=John Lee Hooker - Boogie Chillen 2
TTITLE12=Mississippi John Hurt - Nobody's Dirty Business 
TTITLE13=Muddy Waters - Baby Please Don't Go
TTITLE14=Jimmy Witherspoon - C.C. Rider
TTITLE15=Brownie McGhee and Sonny Terry - Everybody's Blue
EXTD=YEAR: 2008
EXTT0=
EXTT1=
EXTT2=
EXTT3=
EXTT4=
EXTT5=
EXTT6=
EXTT7=
EXTT8=
EXTT9=
EXTT10=
EXTT11=
EXTT12=
EXTT13=
EXTT14=
EXTT15=
PLAYORDER=
